<?xml version="1.0" encoding="utf-8"?>
<!-- Generator: Adobe Illustrator 22.0.0, SVG Export Plug-In . SVG Version: 6.00 Build 0)  -->
<svg version="1.1" id="Layer_1" xmlns="http://www.w3.org/2000/svg" xmlns:xlink="http://www.w3.org/1999/xlink" x="0px" y="0px"
	 viewBox="0 0 266.5 168.9" style="enable-background:new 0 0 266.5 168.9;" xml:space="preserve">
<style type="text/css">
	.st0{display:none;fill:#898989;}
	.st1{fill:#00BCD4;}
</style>
<rect x="293.1" y="-65.7" class="st0" width="500" height="250"/>
<g>
	<path class="st1" d="M33.4,129.6H22.3v39.3H11.6v-39.3H0.5v-5.8h32.9L33.4,129.6L33.4,129.6z"/>
	<path class="st1" d="M68.5,168.9h-9.8v-25.6c0-1.5-0.6-2.3-1.7-2.3h-8.2c-1.3,0-1.7,0.6-1.7,2.3v25.6h-9.8v-45.1h9.8v14.5H47
		c0.7-1.9,1.5-2.5,3.2-2.5h11.9c4.3,0,6.4,2.9,6.4,8.6L68.5,168.9L68.5,168.9z"/>
	<path class="st1" d="M104.2,168.9h-8.5l-0.4-3.4h-0.1c-0.6,2.1-1.5,3.4-3.6,3.4H78.8c-4.4,0-6.4-3.1-6.4-10.7v-1.5
		c0-7.7,1.8-10.7,6.5-10.7h15.4v-3.8c0-0.9-0.4-1.4-1.4-1.4H78.9v-5h18.7c4.4,0,6.6,2.9,6.6,8.6L104.2,168.9L104.2,168.9z
		 M94.3,151.1H83.9c-1.1,0-1.6,0.7-1.6,2.2v8.1c0,1.4,0.5,2.2,1.5,2.2h9c1.1,0,1.6-0.6,1.6-2.2L94.3,151.1L94.3,151.1z M95.4,124.4
		l-6.1,7.7h-4.2l3.9-7.7H95.4z"/>
	<path class="st1" d="M139.5,168.9h-9.8v-25.6c0-1.5-0.6-2.3-1.7-2.3h-8.2c-1.3,0-1.8,0.6-1.8,2.3v25.6h-9.8v-33.1h9.5h3.2h12.3
		c4.2,0,6.4,2.9,6.4,8.6L139.5,168.9L139.5,168.9z"/>
	<path class="st1" d="M175.4,168.9h-9.8v-25.6c0-1.5-0.6-2.3-1.7-2.3h-8.2c-1.3,0-1.7,0.6-1.7,2.3v25.6H144v-45.1h9.8v14.5h0.1
		c0.7-1.9,1.5-2.5,3.2-2.5H169c4.3,0,6.4,2.9,6.4,8.6L175.4,168.9L175.4,168.9z"/>
	<path class="st1" d="M229.4,168.9h-22c-4.7,0-7.1-3.3-7.1-8.9v-27.4c0-5.5,2.4-8.9,7.1-8.9h22v5.8h-16.6c-1.3,0-1.9,0.8-1.9,2.4
		v28.7c0,1.8,0.6,2.4,1.9,2.4h16.6V168.9z"/>
	<path class="st1" d="M265.3,168.9h-8.5l-0.4-3.4h-0.1c-0.6,2.1-1.5,3.4-3.6,3.4H240c-4.4,0-6.4-3.1-6.4-10.7v-1.5
		c0-7.7,1.8-10.7,6.5-10.7h15.4v-3.8c0-0.9-0.4-1.4-1.4-1.4h-14.1v-5h18.7c4.4,0,6.6,2.9,6.6,8.6L265.3,168.9L265.3,168.9z
		 M255.5,151.1h-10.5c-1.1,0-1.6,0.7-1.6,2.2v8.1c0,1.4,0.5,2.2,1.5,2.2h9c1.1,0,1.6-0.6,1.6-2.2V151.1z"/>
</g>
<g>
	<path class="st1" d="M104.1,80.6c-0.6,0-1.5,0.3-2.6,0.9c-1.2,0.7-1.8,1.3-1.8,1.9c0,0.7,0.4,1,1.3,1c2.5,0,3.8-0.6,3.8-1.7
		c0-0.1,0-0.1,0-0.3c0-0.1,0-0.2,0-0.3v-0.1c0-0.1,0-0.2,0-0.2C104.8,81,104.5,80.6,104.1,80.6z"/>
	<path class="st1" d="M72.6,68.8c-0.5,0-1.1,0.2-1.7,0.6c-0.7,0.4-1.1,0.9-1,1.4l0.1,0.7c0,0.4,0.1,0.9,0.1,1.3c0,0.7,0,1.5-0.1,2.4
		l-0.1,2.3v3.2h0c0,0.7,0,1.5,0,2.4c0,0.1,0,0.1,0,0.2c0,0.5,0.1,0.7,0.3,0.7c0.4,0,1.1-1.4,2.1-4.1c1.2-3.2,1.8-5.8,1.8-7.8
		C74.1,69.9,73.6,68.8,72.6,68.8z"/>
	<path class="st1" d="M51.7,69c-0.8,0-1.5,1.6-2.2,4.8c-0.6,2.6-0.8,4.6-0.8,5.9c0,0.9,0.1,1.9,0.3,3c0.3,1.6,0.6,2.5,1.1,2.5
		c1,0,1.8-1.4,2.5-4.2c0.5-2.1,0.8-3.9,0.8-5.4c0-1-0.1-2.3-0.3-3.7C52.7,70,52.3,69,51.7,69z"/>
	<path class="st1" d="M264.8,78.2c-3.5-24.5-14.3-37.5-14.3-37.5c-7.5-9.9-21.9-16.8-35.5-16S182,32.5,182,32.5
		c-17.3,9.8-30.5-2-30.5-2c-9.1-5.8-24.7-16.1-24.7-16.1C84.6-11.8,44.1,5.7,44.1,5.7C17,15.6,8,45.3,8,45.3
		c-10,23.4-7.8,67.6-7.8,67.6v0h266C267.1,107.6,264.8,78.2,264.8,78.2z M37.8,62.6c0.1,1.5,0.1,2.6,0.1,3.4c0,0.7,0,1.6-0.1,2.9
		c-0.1,1.3-0.1,2.3-0.1,2.9c0,0.6,0,1.6,0.1,2.8c0.1,1.2,0.1,2.2,0.1,2.8c0,0.9-0.1,2.3-0.2,4.2c-0.1,1.9-0.2,3.3-0.2,4.2v1.4
		c0,1.1-0.4,1.6-1.2,1.6c-3,0-4.5-1-4.5-3v-1c0-0.9,0-2.3-0.1-4.1c-0.1-1.8-0.1-3.2-0.1-4.1c0-0.7,0-1.3,0-2v-1.1
		c0-1-0.2-1.5-0.6-1.5c-0.4,0-0.9,0.1-1.6,0.2c-0.7,0.1-1.3,0.2-1.6,0.2c-0.1,0-0.2,0-0.4,0c-0.2,0-0.3,0-0.5,0
		c-0.3,0-1.1,0.1-2.4,0.4c-0.2,0-0.2,0.6-0.2,1.7v3c0,1.4,0,2.8-0.1,4.2l-0.1,2.2c0,0.2,0,0.5,0,1c0,0.4,0,0.8,0,1
		c0,0.2,0,0.5-0.1,0.9c0,0.4-0.1,0.7-0.1,0.9c0,0.1,0,0.3,0.1,0.6c0,0.2,0.1,0.4,0.1,0.6c0,0.6-0.2,0.8-0.7,0.8
		c-0.1,0-0.4,0-0.7-0.1c-0.3-0.1-0.5-0.1-0.7-0.1h-0.6c-1,0-1.9-0.4-2.6-1.3c-0.5-0.6-0.8-2.3-0.8-5s0-5.7-0.1-8.9L18,68.8
		c0-1.3,0.1-3.3,0.2-6c0.1-2.7,0.2-4.7,0.2-6c0-0.3,0-0.8,0-1.4c0-0.6,0-1.1,0-1.4c0-0.6,0.2-1.2,0.5-1.8c0.4-0.8,0.8-1.1,1.3-1.1
		c1.7,0,2.8,0.1,3.3,0.4c0.8,0.4,1.1,1.3,1.1,2.8c0,0.6,0,1.4-0.1,2.6s-0.1,2-0.1,2.6c0,0.6,0,1.5,0.1,2.6s0.1,2,0.1,2.6
		c0,0.1,0,0.3-0.1,0.6c0,0.3-0.1,0.4-0.1,0.5c0,0.2,0.1,0.3,0.2,0.3c0.2,0,0.4,0,0.8-0.1s0.6-0.1,0.8-0.1c0.1,0,0.3,0,0.5,0
		c0.2,0,0.4,0,0.5,0c0.3,0,0.9-0.1,1.5-0.2c0.7-0.1,1.2-0.2,1.5-0.2c0.1,0,0.3,0,0.5,0.1c0.2,0,0.3,0.1,0.4,0.1
		c0.4,0,0.5-3.8,0.5-11.3c0-0.5,0-1.3-0.1-2.4c-0.1-1.1-0.1-1.8-0.1-2.4c0-0.8,0.1-1.3,0.4-1.6c0.2-0.3,0.7-0.4,1.5-0.4
		c0.9,0,1.8,0.2,2.7,0.6c1.1,0.5,1.7,1.1,1.7,1.9c0,0.2,0,0.5,0,0.9c0,0.4,0,0.7,0,0.9c0,0.2,0,0.5,0.1,1c0.1,0.4,0.1,0.8,0.1,1
		c0,0.6,0,1.4-0.1,2.6c-0.1,1.1-0.1,2-0.1,2.6C37.7,60,37.7,61.1,37.8,62.6z M54.8,99c-0.3,0.8-0.5,1.2-0.8,1.2c0,0-0.1,0-0.1,0
		c-0.1,0-0.1,0-0.1,0c0,0,0,0,0,0c-0.1,0.4-0.8,0.8-2,1.2c0,0-0.5,0.2-1.5,0.6c-0.7,0-1.4-0.4-2.2-1.1c-0.8-0.8-1.1-1.5-1.1-2.2
		c0-1.2,0.3-2.1,0.8-2.8c0.3-0.5,0.8-1.3,1.6-2.2c0.4-0.3,0.8-0.5,1-0.5c0.1,0,0.4,0.1,0.8,0.3s0.6,0.3,0.6,0.3c0.1,0,0.3,0,0.5-0.1
		h0.1c0.3,0,0.9,0.5,1.6,1.6s1.2,1.8,1.2,2.3C55.1,97.8,55,98.3,54.8,99z M60.7,74c-0.6,1.8-1.1,2.8-1.5,2.8c-0.1,0-0.1,0-0.2,0v0.2
		c0,2.5-0.5,5.1-1.6,7.8c-1.4,3.4-3.1,5.1-5.3,5.1c-0.6,0-1.4-0.2-2.3-0.6c-1.9-0.9-3.3-1.6-4.1-2c-1.8-1.3-2.7-4.1-2.7-8.3
		c0-4.3,0.9-8.5,2.7-12.4c0.8-1.7,1.8-2.6,3-2.6c0.4,0,1.4,0.2,2.8,0.6c1.4,0.4,2.3,0.7,2.8,0.9c1.5,0.7,2.7,2,3.5,4l0.1,0.1
		l0.8-4.2c0.2-0.8,0.3-1.4,0.4-1.7c0.1-0.1,0.3-0.4,0.9-0.8c0.5-0.4,0.9-0.5,1-0.5c0.5,0,1.1,0.2,1.7,0.6c0.7,0.4,1.1,0.9,1.1,1.3
		c0,0.7-0.8,3.1-2.3,7.3C61.4,71.9,61.1,72.7,60.7,74z M78.9,78.3c-0.6,2.1-1.3,3.8-2,5.2c-2,3.8-3.6,5.7-4.8,5.7
		c-0.2,0-0.4,0-0.8-0.1C71,89,70.7,89,70.6,89c-0.6,0-0.8,0.4-0.8,1.3v0.5c0,0.4,0,1.1,0.1,1.9c0,0.9,0.1,1.5,0.1,1.9
		c0,0.5,0,1.3-0.1,2.4c-0.1,1.1-0.1,1.9-0.1,2.4v0.9c0,1.5-0.4,2.3-1.1,2.3c-0.8,0-1.7-0.3-2.7-0.8c-1.1-0.6-1.7-1.3-1.7-2
		c0-0.2,0-0.5,0.1-0.9c0-0.4,0.1-0.7,0.1-0.9c0-0.4,0-0.9-0.1-1.6c-0.1-0.7-0.1-1.3-0.1-1.6c0-0.5,0-1.3,0.1-2.3
		c0.1-1,0.1-1.8,0.1-2.3c0-0.3,0-0.8-0.1-1.4c0-0.6-0.1-1.1-0.1-1.4c0-0.9,0-2.1,0.1-3.8c0-1.7,0.1-3,0.1-3.8c0-0.4,0-0.9-0.1-1.7
		s-0.1-1.3-0.1-1.7c0.1-0.5,0.1-0.9,0.1-1.1c0-0.2-0.3-0.6-0.8-1.1c-0.5-0.6-0.8-1-0.8-1.3c0,0.1,0.3-0.4,0.8-1.4c0.6-1,0.8-2,0.8-3
		c0-0.2,0-0.5,0-1c0-0.4,0-0.7,0-1c0-1.7,0-2.7,0.1-3c0.1-1.6,0.6-2.3,1.3-2.3c0.8,0,1.6,0.3,2.6,0.9c1.1,0.6,1.6,1.3,1.6,2v0.3
		c0,0.2,0.1,0.3,0.2,0.3c0.1,0,0.3,0,0.6-0.1c0.3-0.1,0.5-0.1,0.6-0.1c2.5,0,4.5,0.8,6.1,2.3c1.6,1.6,2.4,3.6,2.4,6.1
		C79.9,74.2,79.6,76,78.9,78.3z M109.9,76.8c0,1.4-0.1,2.5-0.1,3.3c0,0.3,0,0.8,0,1.5c0,0.7,0,1.2,0,1.5c0,0.4,0,1,0,1.9
		c0,0.8,0,1.5,0,1.9c0,0.5,0,1,0,1.5c0,0.1,0,0.2,0,0.2c0,0.8-0.5,1.3-1.6,1.3c-1.4,0-2.4-0.6-3.1-1.8c-1.8,0.7-3.2,1-4.1,1
		c-1.2,0-2.4-0.6-3.6-1.9s-1.7-2.5-1.7-3.7c0-2,0.6-3.5,1.7-4.5c0.7-0.6,1.6-1.2,2.7-1.8c1.3-0.7,2.3-1.1,3-1.1c0.1,0,0.3,0,0.5,0
		c0.2,0,0.4,0,0.5,0c0.4,0,0.6-0.3,0.6-1c0-0.3,0-0.7,0-1.3s0-1,0-1.3c0-0.2,0-0.5,0-1s0-0.8,0-1c0-0.8-0.2-1.3-0.5-1.3
		c-0.3,0-0.9,0.6-1.7,1.9c-0.4,0.7-0.9,1.3-1.4,2c-0.2,0.3-0.5,0.8-0.8,1.3c-0.4,0.8-0.8,1.2-1.3,1.2c-0.5,0-1.1-0.2-1.9-0.6
		c-0.8-0.4-1.2-0.9-1.2-1.4c0-0.5,0.4-1.6,1.2-3.2c0.7-1.5,1.3-2.6,1.7-3.1l0.3-0.4c1.6-2,2.7-3,3.5-3c0.2,0,0.8,0.3,2,0.9
		c1.3,0.7,2,1,2.2,1.1c1.4,0.5,2.3,1.6,2.8,3.2c0.3,0.9,0.4,2.4,0.4,4.5C110,74.3,110,75.4,109.9,76.8z M110.4,61.6
		c-2.7,0-4.2-0.3-4.7-0.9l-0.6-0.8c-0.8-1.2-1.4-1.8-1.6-1.8c-0.3,0-0.9,0.6-1.8,1.9c-0.1,0.2-0.3,0.4-0.5,0.7
		c-0.4,0.6-2,0.9-4.7,0.9c-0.7,0-1-0.3-1-0.9c0-0.5,1.2-2.1,3.5-4.8c1.3-1.5,2-2.2,2.2-2.2c0.1,0,0.2,0,0.3,0c0.1,0,0.2,0,0.3,0
		c0.2,0,0.5,0,0.8-0.1c0.4-0.1,0.6-0.1,0.8-0.1c0.2,0,0.4,0,0.8,0.1c0.3,0.1,0.6,0.1,0.8,0.1c0.1,0,0.1,0,0.3,0c0.1,0,0.2,0,0.3,0
		c0.2,0,0.9,0.7,2.2,2.2c2.4,2.7,3.6,4.3,3.6,4.8C111.5,61.3,111.1,61.6,110.4,61.6z M138.9,75.8c0,1.3-0.3,5.2-0.8,11.7
		c-0.1,0.8-0.2,1.3-0.4,1.5c-0.2,0.3-0.7,0.4-1.5,0.4c-0.7,0-1.4-0.2-2.1-0.5c-0.8-0.4-1.2-1-1.2-1.7c0-0.2,0-0.7,0.1-1.5
		c0.2-3.2,0.3-6.2,0.3-8.9c0-1.9,0.1-3.7,0.2-5.2l0-0.3c0-1.6-0.3-2.4-0.8-2.4c-0.4,0-1,0.9-1.7,2.8c-0.5,1.5-0.9,2.7-1,3.5
		c-0.2,1.1-0.4,2.5-0.5,4.4v0.9c-0.3,4-0.4,5.8-0.4,5.4v1.4c0,0.7-0.4,1-1.2,1c-0.3,0-0.7-0.1-1.2-0.3c-0.5-0.2-0.8-0.3-1-0.3
		c-0.9,0-1.4-0.4-1.5-1.3c-0.1-0.2-0.1-1-0.1-2.4c0-1,0-2.6,0.1-4.6c0.1-2.1,0.1-3.6,0.1-4.6c0-3.3-0.2-5-0.7-5c-1.1,0-2,1.7-2.8,5
		c-0.6,2.5-0.9,4.6-0.9,6.3c0,0.4,0,1.1,0.1,2c0.1,0.9,0.1,1.6,0.1,2c0,3.1-0.4,4.6-1.2,4.6c-1.8,0-2.9-0.4-3.1-1.1
		c0-0.1-0.3-0.3-0.8-0.5c-0.4-0.2-0.6-0.7-0.6-1.5c0-0.7,0-1.4,0-2.1v-1.3v-5.2c0-0.4,0-0.9,0.1-1.7s0.1-1.3,0.1-1.7
		c0-1.1,0-2.6-0.1-4.8c-0.1-2.1-0.1-3.7-0.1-4.8c0-0.9,0.7-1.4,2.1-1.4c1.7,0,2.5,0.4,2.5,1.1c0,0.1,0,0.2,0,0.2
		c-0.1,0.9-0.1,1.8-0.1,2.5V68c0,0.1,0.1,0.2,0.2,0.2c0.1-0.1,0.2-0.2,0.4-0.5c1.4-2,2.7-3,3.9-3c1.4,0,2.8,0.9,4.2,2.6
		c0.2,0.2,0.3,0.4,0.3,0.4c0.1,0,0.3-0.2,0.5-0.6c0.1-0.3,0.3-0.5,0.4-0.8c0.9-1.3,2.5-2,4.9-2c2.1,0,3.5,0.7,4.2,2
		c0.5,0.9,0.8,2.6,0.8,5V75.8z"/>
</g>
</svg>
